<?xml version="1.0" encoding="UTF-8"?>
<svg width="270px" height="540px" viewBox="0 0 270 540" version="1.1" xmlns="http://www.w3.org/2000/svg" xmlns:xlink="http://www.w3.org/1999/xlink">
    <!-- Generator: Sketch 46.2 (44496) - http://www.bohemiancoding.com/sketch -->
    <title>phone</title>
    <desc>Created with Sketch.</desc>
    <defs></defs>
    <g id="Page-1" stroke="none" stroke-width="1" fill="none" fill-rule="evenodd">
        <g id="phone">
            <path d="M42.973822,0 L227.308901,0 C249.949602,0 268.303665,18.3540628 268.303665,40.9947644 L268.303665,498.24556 C268.303665,520.886262 249.949602,539.240042 227.308901,539.240042 L42.973822,539.240042 C20.3331204,539.240042 1.97905759,520.886262 1.97905759,498.24556 L1.97905759,40.9947644 C1.97905759,18.3540628 20.3331204,0 42.973822,0 Z M39.5811518,13.5706806 C25.840555,13.5706806 14.7015707,24.7096649 14.7015707,38.4502618 L14.7015707,501.549738 C14.7015707,515.290335 25.840555,526.429319 39.5811518,526.429319 L230.701571,526.429319 C244.442168,526.429319 255.581152,515.290335 255.581152,501.549738 L255.581152,38.4502618 C255.581152,24.7096649 244.442168,13.5706806 230.701571,13.5706806 L39.5811518,13.5706806 Z" id="Path" fill="#25282D"></path>
            <path d="M42.6910995,5.37172775 L227.591623,5.37172775 C247.42178,5.37172775 263.497382,21.4473298 263.497382,41.2774869 L263.497382,498.157068 C263.497382,517.987225 247.42178,534.062827 227.591623,534.062827 L42.6910995,534.062827 C22.8609424,534.062827 6.78534031,517.987225 6.78534031,498.157068 L6.78534031,41.2774869 C6.78534031,21.4473298 22.8609424,5.37172775 42.6910995,5.37172775 Z M39.5811518,13.5706806 C25.840555,13.5706806 14.7015707,24.7096649 14.7015707,38.4502618 L14.7015707,501.549738 C14.7015707,515.290335 25.840555,526.429319 39.5811518,526.429319 L230.701571,526.429319 C244.442168,526.429319 255.581152,515.290335 255.581152,501.549738 L255.581152,38.4502618 C255.581152,24.7096649 244.442168,13.5706806 230.701571,13.5706806 L39.5811518,13.5706806 Z" id="Shape" fill="#000000"></path>
            <path d="M266.890052,125.528796 L268.445026,125.528796 C269.303937,125.528796 270,126.224859 270,127.08377 L270,187.020942 C270,187.879853 269.303937,188.575916 268.445026,188.575916 L266.890052,188.575916 L266.890052,125.528796 Z" id="Shape" fill="#000000"></path>
            <path d="M1.55497382,160.86911 L3.10994764,160.86911 L3.10994764,201.298429 L1.55497382,201.298429 C0.696062827,201.298429 0,200.602366 0,199.743455 L0,162.424084 C0,161.565173 0.696062827,160.86911 1.55497382,160.86911 Z" id="Shape" fill="#000000"></path>
            <path d="M1.55497382,109.696335 L3.10994764,109.696335 L3.10994764,150.125654 L1.55497382,150.125654 C0.696062827,150.125654 0,149.429592 0,148.570681 L0,111.251309 C0,110.392398 0.696062827,109.696335 1.55497382,109.696335 Z" id="Shape" fill="#000000"></path>
            <path d="M1.55497382,72.3769634 L3.10994764,72.3769634 L3.10994764,93.0157068 L1.55497382,93.0157068 C0.696062827,93.0157068 0,92.319644 0,91.460733 L0,73.9319372 C0,73.0730262 0.696062827,72.3769634 1.55497382,72.3769634 Z" id="Shape" fill="#000000"></path>
            <path d="M258.91756,15.7886387 C259.340796,16.3472984 259.539267,16.6806283 259.539267,16.6806283 C259.539267,16.6806283 259.333728,16.3506911 258.91756,15.7886387 Z M230.02134,3.82467016 C208.149361,3.82467016 135.002545,3.82467016 135.002545,3.82467016 L135.002545,3.75031414 C126.82112,3.75031414 61.3191204,3.75031414 40.8265445,3.75031414 C22.4738953,3.75031414 14.1381047,12.8539791 11.9306073,15.7835497 C14.3114136,12.5506178 23.5931937,1.67484817 40.8265445,1.50153927 C61.0731518,1.29769634 135.845906,1.50153927 135.845906,1.50153927 L135.845906,1.58663874 C144.128262,1.56515183 211.039351,1.39891099 230.02134,1.58890052 C247.254691,1.76107853 256.536471,12.573801 258.91756,15.7886387 C256.70978,12.875466 248.373707,3.82467016 230.02134,3.82467016 Z M11.9306073,15.7835497 C11.5141571,16.3489948 11.3089005,16.6806283 11.3089005,16.6806283 C11.3089005,16.6806283 11.507089,16.3456021 11.9306073,15.7835497 Z" id="Shape" fill="#FFFFFF" opacity="0.211163949"></path>
            <path d="M204.973822,13.5706806 C204.145162,13.5706806 202.555131,13.3628796 201.863874,15.2670157 C200.11156,20.0945026 198.028461,31.382199 189.141361,31.382199 C180.839497,31.382199 149.644461,31.3516649 134.717277,31.3366806 C119.790094,31.3516649 88.5950576,31.382199 80.2931937,31.382199 C71.4058115,31.382199 69.3232775,20.0945026 67.5706806,15.2670157 C66.8794241,13.3628796 65.2893927,13.5706806 64.460733,13.5706806 C60.1955812,13.5706806 55.6963351,13.5706806 55.6963351,13.5706806 L55.9790576,7.91623037 L126.659686,7.91623037 L142.774869,7.91623037 L213.455497,7.91623037 L213.73822,13.5706806 C213.73822,13.5706806 209.238691,13.5706806 204.973822,13.5706806 Z" id="Shape" fill="#000000"></path>
            <path d="M82.9790576,17.2460733 C85.5555079,17.2460733 87.6439791,19.3345445 87.6439791,21.9109948 C87.6439791,24.487445 85.5555079,26.5759162 82.9790576,26.5759162 C80.4026073,26.5759162 78.3141361,24.487445 78.3141361,21.9109948 C78.3141361,19.3345445 80.4026073,17.2460733 82.9790576,17.2460733 Z" id="Shape" fill="#111111"></path>
            <path d="M82.9790576,19.5078534 C84.3061571,19.5078534 85.382199,20.5838953 85.382199,21.9109948 C85.382199,23.2380942 84.3061571,24.3141361 82.9790576,24.3141361 C81.6519581,24.3141361 80.5759162,23.2380942 80.5759162,21.9109948 C80.5759162,20.5838953 81.6519581,19.5078534 82.9790576,19.5078534 Z" id="Shape" fill="#000000" opacity="0.569"></path>
            <path d="M164.685864,17.2460733 C167.262314,17.2460733 169.350785,19.3345445 169.350785,21.9109948 C169.350785,24.487445 167.262314,26.5759162 164.685864,26.5759162 C162.109414,26.5759162 160.020942,24.487445 160.020942,21.9109948 C160.020942,19.3345445 162.109414,17.2460733 164.685864,17.2460733 Z" id="Shape" fill="#111111"></path>
            <path d="M120.863874,19.7905759 L149.984293,19.7905759 C151.15533,19.7905759 152.104712,20.7399581 152.104712,21.9109948 C152.104712,23.0820314 151.15533,24.0314136 149.984293,24.0314136 L120.863874,24.0314136 C119.692838,24.0314136 118.743455,23.0820314 118.743455,21.9109948 C118.743455,20.7399581 119.692838,19.7905759 120.863874,19.7905759 Z" id="Shape" fill="#111111"></path>
            <path d="M121.005236,11.3089005 L149.842932,11.3089005 C151.092,11.3089005 152.104712,12.3216126 152.104712,13.5706806 C152.104712,14.8197487 151.092,15.8324607 149.842932,15.8324607 L121.005236,15.8324607 C119.756168,15.8324607 118.743455,14.8197487 118.743455,13.5706806 C118.743455,12.3216126 119.756168,11.3089005 121.005236,11.3089005 Z" id="Shape" fill="#111111"></path>
            <path d="M106.727749,16.3979058 C109.77267,16.3979058 112.240838,18.8660733 112.240838,21.9109948 C112.240838,24.9559162 109.77267,27.4240838 106.727749,27.4240838 C103.682827,27.4240838 101.21466,24.9559162 101.21466,21.9109948 C101.21466,18.8660733 103.682827,16.3979058 106.727749,16.3979058 Z" id="Shape" fill="#111111"></path>
            <path d="M186.455497,16.3979058 C189.500419,16.3979058 191.968586,18.8660733 191.968586,21.9109948 C191.968586,24.9559162 189.500419,27.4240838 186.455497,27.4240838 C183.410576,27.4240838 180.942408,24.9559162 180.942408,21.9109948 C180.942408,18.8660733 183.410576,16.3979058 186.455497,16.3979058 Z" id="Shape" fill="#111111"></path>
            <path d="M106.727749,18.6596859 C108.523319,18.6596859 109.979058,20.1154241 109.979058,21.9109948 C109.979058,23.7065654 108.523319,25.1623037 106.727749,25.1623037 C104.932178,25.1623037 103.47644,23.7065654 103.47644,21.9109948 C103.47644,20.1154241 104.932178,18.6596859 106.727749,18.6596859 Z" id="Shape" fill="#000000" opacity="0.569"></path>
        </g>
    </g>
</svg>