<?xml version="1.0" encoding="UTF-8"?>
<svg width="698px" height="698px" viewBox="0 0 698 698" version="1.1" xmlns="http://www.w3.org/2000/svg" xmlns:xlink="http://www.w3.org/1999/xlink">
    <!-- Generator: Sketch 46.2 (44496) - http://www.bohemiancoding.com/sketch -->
    <title>pulse</title>
    <desc>Created with Sketch.</desc>
    <defs></defs>
    <g id="Page-1" stroke="none" stroke-width="1" fill="none" fill-rule="evenodd" fill-opacity="0">
        <g id="pulse" stroke="#00FEFF" fill="#23292E">
            <path d="M349,161.5 C453.106,161.5 537.5,245.894 537.5,350 C537.5,454.106 453.106,538.5 349,538.5 C244.894,538.5 160.5,454.106 160.5,350 C160.5,245.894 244.894,161.5 349,161.5 Z" id="Shape" opacity="0.549"></path>
            <path d="M349,108.5 C481.824,108.5 589.5,216.176 589.5,349 C589.5,481.825 481.824,589.5 349,589.5 C216.176,589.5 108.5,481.825 108.5,349 C108.5,216.176 216.176,108.5 349,108.5 Z" id="Shape" opacity="0.4"></path>
            <path d="M349.5,55.5 C511.872,55.5 643.5,187.129 643.5,349.5 C643.5,511.872 511.872,643.5 349.5,643.5 C187.128,643.5 55.5,511.872 55.5,349.5 C55.5,187.129 187.128,55.5 349.5,55.5 Z" id="Shape" opacity="0.2"></path>
            <path d="M349,0.5 C541.471,0.5 697.5,156.529 697.5,349 C697.5,541.471 541.471,697.5 349,697.5 C156.529,697.5 0.5,541.471 0.5,349 C0.5,156.529 156.529,0.5 349,0.5 Z" id="Shape" opacity="0.102"></path>
        </g>
    </g>
</svg>